<svg xmlns="http://www.w3.org/2000/svg" viewBox="0 0 64 64">
  <!-- Background tile -->
  <rect width="64" height="64" rx="12" fill="#2fa0b0"/>
  <!-- Slide shadow -->
  <rect x="14" y="17" width="37" height="28" rx="4" fill="rgba(0,0,0,0.18)"/>
  <!-- Slide -->
  <rect x="12" y="14" width="37" height="28" rx="4" fill="white"/>
  <!-- Title bar -->
  <rect x="12" y="14" width="37" height="8" rx="4" fill="#1a7a8a"/>
  <rect x="12" y="18" width="37" height="4" fill="#1a7a8a"/>
  <!-- Content lines -->
  <rect x="17" y="27" width="20" height="2.5" rx="1.5" fill="#b5e4ea"/>
  <rect x="17" y="32" width="14" height="2.5" rx="1.5" fill="#d4eef2"/>
  <rect x="17" y="37" width="17" height="2.5" rx="1.5" fill="#d4eef2"/>
  <!-- Heart -->
  <path d="M43.5 17.5 C43.5 16.4 42.6 15.5 41.5 15.5 C40.9 15.5 40.4 15.8 40 16.2 C39.6 15.8 39.1 15.5 38.5 15.5 C37.4 15.5 36.5 16.4 36.5 17.5 C36.5 19.2 40 22 40 22 C40 22 43.5 19.2 43.5 17.5 Z" fill="#e05264"/>
</svg>
